<svg fill="none" height="100" viewBox="0 0 301 100" width="301" xmlns="http://www.w3.org/2000/svg" xmlns:xlink="http://www.w3.org/1999/xlink"><linearGradient id="a" gradientUnits="userSpaceOnUse" x1="60.6679" x2="-9.89544" y1=".634277" y2="60.4897"><stop offset="0" stop-color="#792ee5"/><stop offset="1" stop-color="#428ff4"/></linearGradient><clipPath id="b"><path d="m78.3627 20.6343h221.64v40.6728h-221.64z"/></clipPath><path d="m29.0045 1.00163-27.67939 16.51037c-.402904.2409-.737378.5868-.969934 1.003s-.35502566.888-.355176 1.3684v33.0251c.00015034.4804.12262.9523.355176 1.3685.232556.4161.56703.7619.969934 1.0029l27.67939 16.508c.4042.2407.8627.3675 1.3295.3675.4667 0 .9252-.1268 1.3294-.3675l27.6794-16.508c.4029-.241.7374-.5868.9699-1.0029.2326-.4162.355-.8881.3552-1.3685v-33.0251c-.0002-.4804-.1226-.9522-.3552-1.3684-.2325-.4162-.567-.7621-.9699-1.003l-27.6794-16.51037c-.4042-.240687-.8627-.367353-1.3294-.367353-.4668 0-.9253.126666-1.3295.367353zm-4.5115 55.05147 3.2866-14.4399c.0235-.1046.0207-.2137-.0083-.3168s-.0831-.1969-.1573-.2722l-7.9813-8.0135c-.0571-.0579-.1025-.127-.1335-.2032-.031-.0763-.0469-.1581-.0469-.2407 0-.0827.0159-.1645.0469-.2407s.0764-.1453.1335-.2033l15.5767-15.9775c.0926-.0959.2129-.1579.3428-.1767s.2622.0067.3767.0727c.1145.0659.205.1686.2577.2925s.0647.2621.0341.3937l-3.291 14.476c-.0247.1045-.0224.2139.0067.3172s.0839.197.1589.2717l7.9203 7.9708c.057.0578.1024.1267.1333.2027.031.0761.0469.1576.0469.2401 0 .0824-.0159.1641-.0469.2401-.0309.0761-.0763.145-.1333.2027l-15.5245 15.9888c-.0934.0934-.2134.1532-.3424.1705-.129.0172-.26-.0089-.3734-.0746s-.2033-.1674-.2561-.2899c-.0528-.1226-.0659-.2596-.0372-.3905z" fill="url(#a)"/><path d="m24.493 56.0531 3.2866-14.4399c.0235-.1046.0207-.2137-.0083-.3168s-.0831-.1969-.1573-.2722l-7.9813-8.0135c-.0571-.0579-.1025-.127-.1335-.2032-.031-.0763-.0469-.1581-.0469-.2407 0-.0827.0159-.1645.0469-.2407s.0764-.1453.1335-.2033l15.5767-15.9775c.0926-.0959.2129-.1579.3428-.1767s.2622.0067.3767.0727c.1145.0659.205.1686.2577.2925s.0647.2621.0341.3937l-3.291 14.476c-.0247.1045-.0224.2139.0067.3172s.0839.197.1589.2717l7.9203 7.9708c.057.0578.1024.1267.1333.2027.031.0761.0469.1576.0469.2401 0 .0824-.0159.1641-.0469.2401-.0309.0761-.0763.145-.1333.2027l-15.5245 15.9888c-.0934.0934-.2134.1532-.3424.1705-.129.0172-.26-.0089-.3734-.0746s-.2033-.1674-.2561-.2899c-.0528-.1226-.0659-.2596-.0372-.3905z" fill="#fff"/><g fill="#4f4f4f"><path d="m15.5186 92.9607v-11.758h1.7521v1.7753c.2285-.5902.6407-1.0913 1.1758-1.4294.5673-.3521 1.2229-.536 1.8905-.5303h.9683v1.8444h-.415c-.2222-.0239-.4464-.0239-.6686 0-.5368-.0011-1.0662.1253-1.5446.3689-.4281.2215-.787.5565-1.0375.9683-.2714.4262-.408.9243-.3919 1.4294v7.4467z"/><path d="m28.2217 93.1912c-1.0246.022-2.0361-.2329-2.9279-.7378-.8177-.5144-1.4732-1.2497-1.8905-2.1209-.4609-.9881-.6896-2.0686-.6686-3.1586-.0199-1.1048.2085-2.1999.6686-3.2046.402-.8802 1.0507-1.625 1.8674-2.144.8209-.5368 1.7861-.8103 2.7666-.7839.6196-.0037 1.2355.0976 1.8213.2997.6041.2225 1.1598.5591 1.6369.9914.5227.5075.9178 1.1316 1.1527 1.8212.3208.8859.4695 1.825.4381 2.7666v.7608h-9.1758v-1.5446h7.2392c.0064-.6213-.1276-1.236-.392-1.7983-.2624-.4997-.6521-.9212-1.1296-1.2219-.5128-.3141-1.105-.4742-1.7061-.4611-.665-.0153-1.3181.1782-1.8674.5533-.5093.3436-.922.8119-1.1989 1.3603-.2784.5746-.4204 1.2058-.415 1.8443v1.0375c-.0307.7941.1273 1.5843.4611 2.3055.2763.5899.7269 1.0807 1.2911 1.4063.5833.329 1.2439.4961 1.9135.4841.4392.0064.8761-.0638 1.2911-.2075.3679-.13.7053-.334.9914-.5993.3-.2895.5289-.6447.6685-1.0375l1.7292.5072c-.1787.5816-.495 1.1114-.9222 1.5446-.455.4494-.9961.8023-1.5908 1.0375-.6607.2212-1.3555.3227-2.0519.2997z"/><path d="m39.1958 93.3296c-.7008.01-1.3947-.1398-2.0289-.4381-.5854-.2689-1.0872-.6911-1.4524-1.2219-.3613-.5887-.5454-1.2691-.5303-1.9597-.0209-.5711.1146-1.1371.392-1.6368.2581-.4197.6244-.7621 1.0605-.9914.4667-.2455.9624-.4314 1.4755-.5533.5533-.1153 1.0836-.2075 1.6369-.2767l1.7291-.2075c.3439-.0187.6807-.1049.9913-.2535.1038-.0647.1871-.1576.2402-.2678.053-.1102.0737-.2332.0595-.3547.0365-.6469-.1782-1.2829-.5994-1.7752-.254-.223-.5502-.3929-.8708-.4998-.3207-.1069-.6596-.1486-.9966-.1227-.7226-.0479-1.4394.1558-2.0288.5764-.4323.3157-.7871.7256-1.0375 1.1988l-1.706-.5994c.2551-.6572.676-1.2369 1.2219-1.683.4952-.3937 1.0691-.6768 1.683-.83.5856-.1632 1.1903-.2484 1.7982-.2536.4414.0062.8812.0525 1.3141.1384.5053.099.9892.2862 1.4294.5533.4899.3029.8883.7332 1.1528 1.2449.3503.7158.5092 1.5101.4611 2.3055v7.7464h-1.8214v-1.5908c-.1514.3017-.3542.5748-.5994.8069-.3266.3261-.7198.5777-1.1527.7378-.5844.2025-1.2064.2734-1.8213.2075zm.2766-1.6369c.6254.0215 1.2455-.1217 1.7983-.4151.47-.249.8613-.6242 1.1297-1.0835.2451-.4279.3723-.9132.3688-1.4063v-1.66c-.132.1315-.3008.22-.4841.2537-.2958.0793-.596.1409-.8991.1844-.3191.0689-.6427.1151-.9683.1383l-.7608.1152c-.447.0431-.8878.136-1.3142.2768-.3453.1323-.6536.3458-.8991.6224-.2551.3018-.3869.6888-.3689 1.0836-.0182.277.0385.5538.1643.8013s.3159.4564.5504.605c.5114.2905 1.0959.4267 1.683.3919z"/><path d="m53.0055 81.2027v1.5217h-6.0864v-1.5217zm-4.3112-2.8356h1.7983v11.2276c-.029.3906.0508.7816.2305 1.1297.1255.2324.3299.4123.5764.5072.2424.0944.5007.1414.7608.1383h.7839l.3688 1.6138-.5072.1384c-.2759.0279-.554.0279-.8299 0-.5175.0066-1.0298-.1037-1.4986-.3228-.4883-.2158-.9102-.558-1.2219-.9914-.3165-.5116-.4768-1.1045-.4611-1.706z"/><path d="m60.4983 93.1912c-.9837.0198-1.9522-.2444-2.7896-.7608-.8214-.5034-1.4721-1.2425-1.8674-2.121-.4628-.9956-.6915-2.0839-.6686-3.1816-.0199-1.1048.2085-2.1999.6686-3.2045.4305-.8536 1.0895-1.571 1.9036-2.0721.8141-.5012 1.7513-.7666 2.7073-.7666s1.8932.2654 2.7073.7666c.8141.5011 1.4731 1.2185 1.9037 2.0721.471 1.001.7 2.0987.6685 3.2045.0331 1.0986-.1961 2.1893-.6685 3.1816-.3953.8785-1.0461 1.6176-1.8675 2.121-.8108.4996-1.745.7631-2.6974.7608zm0-1.6138c.7135.0316 1.4153-.1888 1.9827-.6225.5409-.4215.9491-.9897 1.1758-1.6368.2438-.7045.3685-1.4448.3689-2.1903-.0042-.7451-.1287-1.4848-.3689-2.1902-.2334-.6436-.6404-1.2101-1.1758-1.6369-.5758-.4197-1.2701-.6458-1.9827-.6458s-1.4068.2261-1.9827.6458c-.5362.421-.937.9902-1.1527 1.6369-.2607.7007-.3934 1.4426-.3919 2.1902-.0035.7478.1293 1.4901.3919 2.1903.2106.6492.6124 1.2197 1.1527 1.6368.5674.4337 1.2692.6541 1.9827.6225z"/><path d="m68.4752 92.9607v-11.7579h1.7292v1.7752h.1383c.2119-.5929.6182-1.0966 1.1527-1.4293.576-.3517 1.2387-.5354 1.9135-.5303h.9223v1.8443h-1.1067c-.5298-.0038-1.0523.1229-1.5216.3689-.4394.2139-.8077.5501-1.0605.9683-.2604.431-.3961.9259-.3919 1.4294v7.4467z"/><path d="m84.8211 83.831-1.6139.4611c-.1181-.2878-.2731-.559-.4611-.8069-.2123-.272-.4898-.4862-.8069-.6225-.4019-.1927-.8462-.2799-1.2911-.2536-.6343-.0216-1.2605.147-1.7982.4841-.211.1342-.3863.3176-.5108.5345-.1245.2168-.1945.4606-.2039.7105-.0092.2081.0322.4154.1205.6041s.221.3532.3867.4795c.4611.3108.9777.5299 1.5216.6455l1.7522.415c.8565.1879 1.6503.5928 2.3054 1.1758.2547.2711.453.59.5836.9382.1306.3483.1909.7189.1772 1.0906.0118.6467-.1909 1.279-.5763 1.7983-.4164.5524-.9739.9824-1.6139 1.2449-.7268.3164-1.5129.4736-2.3054.4611-1.0478.0454-2.0848-.2279-2.9741-.7838-.3961-.2593-.7338-.5983-.9918-.9952s-.4306-.8431-.5068-1.3103l1.7292-.4381c.1139.5766.4438 1.0879.9221 1.4294.5419.3253 1.1668.4855 1.7983.4612.7068.0297 1.406-.1552 2.0058-.5303.2161-.1417.3957-.3326.5239-.557s.2015-.4759.2138-.7341c.0054-.1921-.0286-.3833-.1-.5617-.0714-.1785-.1786-.3404-.315-.4758-.3782-.3155-.8304-.5297-1.3141-.6224l-1.9596-.4612c-.8676-.1703-1.6678-.5864-2.3055-1.1988-.2547-.271-.453-.5899-.5836-.9382-.1306-.3482-.1908-.7189-.1772-1.0906-.0084-.6283.1856-1.2426.5533-1.7522.4095-.5195.9398-.9311 1.5447-1.1988.7249-.3202 1.5136-.4701 2.3054-.438.9736-.0572 1.9385.2104 2.7435.7608.6035.5557 1.0287 1.2777 1.222 2.0749z"/><path d="m98.6078 93.1912c-.9842.0238-1.9538-.2407-2.7896-.7608-.8219-.5095-1.4786-1.2462-1.8905-2.121-.4628-.9956-.6915-2.0839-.6686-3.1816-.02-1.1048.2085-2.1999.6686-3.2045.4245-.8665 1.0783-1.6001 1.8905-2.1211.8358-.5201 1.8054-.7846 2.7896-.7608.9836-.0198 1.9522.2443 2.7892.7608.8.5285 1.445 1.2607 1.868 2.1211.46 1.0046.688 2.0997.668 3.2045.023 1.0977-.205 2.186-.668 3.1816-.407.8756-1.059 1.6141-1.878 2.1258-.818.5116-1.7679.7743-2.7331.756zm0-1.6138c.7129.0277 1.4132-.1923 1.9822-.6225.527-.4297.926-.9959 1.153-1.6368.255-.7017.38-1.4439.369-2.1903.009-.7462-.116-1.488-.369-2.1902-.233-.6377-.631-1.2024-1.153-1.6369-.561-.4474-1.2651-.6766-1.9822-.6455-.7242-.0305-1.4354.1984-2.0058.6455-.5218.4345-.9195.9992-1.1527 1.6369-.2528.7022-.3777 1.444-.3689 2.1902-.0109.7464.1141 1.4886.3689 2.1903.227.6409.6258 1.2071 1.1527 1.6368.578.4302 1.2857.6498 2.0058.6225z"/><path d="m111.91 81.2028v1.5216h-6.34v-1.5216zm-4.426 11.7579v-13.464c-.017-.5943.144-1.1801.461-1.683.321-.4397.749-.7892 1.245-1.0144.504-.2107 1.044-.3203 1.591-.3227.584-.0369 1.169.0658 1.706.2997l-.507 1.5677h-.369c-.215-.0277-.432-.0277-.646 0-.234-.0225-.47.0048-.692.0804-.223.0755-.427.1974-.599.3577-.279.388-.417.8597-.392 1.3371v12.9568z"/><path d="m120.763 92.9606v-15.7694h5.303c1.045-.0439 2.084.1782 3.02.6455.745.4103 1.348 1.0374 1.729 1.7983.396.7775.594 1.6407.577 2.513.014.872-.184 1.7345-.577 2.5129-.373.7662-.978 1.3953-1.729 1.7983-.92.4898-1.956.7209-2.997.6686h-3.804v-1.683h3.735c.703.0367 1.403-.1145 2.029-.438.501-.2495.9-.665 1.129-1.1758.229-.5317.346-1.1044.346-1.683 0-.5787-.117-1.1513-.346-1.683-.229-.5108-.628-.9263-1.129-1.1758-.64-.3048-1.345-.4473-2.052-.415h-3.251v13.9942z"/><path d="m135.38 97.3641c-.276.0269-.554.0269-.83 0l-.507-.1383.461-1.5908c.39.0526.786.0526 1.176 0 .341-.0387.658-.1933.899-.438.323-.3864.566-.8331.715-1.3142l.345-.9221-4.357-11.804h1.96l3.25 9.3602 3.251-9.3602h1.96l-4.819 13.51c-.199.5505-.487 1.0645-.853 1.5216-.304.3751-.69.675-1.129.8761-.478.2138-.999.3163-1.522.2997z"/><path d="m144.856 78.9664v-1.7752h11.757v1.6831h-4.933v13.9941h-1.891v-13.9941z"/><path d="m162.377 93.1912c-.984.0198-1.952-.2444-2.789-.7608-.822-.5034-1.473-1.2425-1.868-2.121-.463-.9956-.691-2.0839-.668-3.1816-.02-1.1048.208-2.1999.668-3.2045.431-.8536 1.09-1.571 1.904-2.0721.814-.5012 1.751-.7666 2.707-.7666s1.893.2654 2.707.7666c.814.5011 1.473 1.2185 1.904 2.0721.46 1.0046.689 2.0997.669 3.2045.022 1.0977-.206 2.186-.669 3.1816-.395.8785-1.046 1.6176-1.867 2.121-.811.4996-1.745.7631-2.698.7608zm0-1.6138c.714.0316 1.415-.1888 1.983-.6225.54-.4171.942-.9876 1.153-1.6368.262-.7002.395-1.4425.392-2.1903.001-.7476-.132-1.4895-.392-2.1902-.216-.6467-.617-1.2159-1.153-1.6369-.576-.4197-1.27-.6458-1.983-.6458-.712 0-1.407.2261-1.983.6458-.536.421-.937.9902-1.152 1.6369-.261.7007-.394 1.4426-.392 2.1902-.004.7478.129 1.4901.392 2.1903.21.6492.612 1.2197 1.152 1.6368.568.4337 1.27.6541 1.983.6225z"/><path d="m170.469 92.9607v-11.758h1.729v1.7753h.139c.212-.5929.618-1.0967 1.153-1.4294.567-.3521 1.222-.536 1.89-.5303h.968v1.8444h-1.106c-.53-.0038-1.053.1229-1.522.3689-.439.2138-.808.5501-1.06.9683-.261.431-.397.9258-.392 1.4294v7.4467z"/><path d="m182.896 93.1912c-1.01.0292-2.005-.2437-2.859-.7838-.803-.5218-1.436-1.2671-1.821-2.1441-.451-.9827-.671-2.0549-.646-3.1355-.029-1.0908.2-2.1731.669-3.1585.393-.8786 1.034-1.6236 1.844-2.1441.829-.5372 1.802-.8105 2.79-.7838.793-.0216 1.581.136 2.305.461.647.2832 1.211.7278 1.637 1.2911.433.5532.704 1.2156.784 1.9136h-1.798c-.153-.5538-.475-1.0457-.922-1.4064-.522-.4534-1.201-.6851-1.891-.6455-.658-.0152-1.303.1785-1.844.5533-.55.3898-.981.9245-1.245 1.5447-.307.7289-.457 1.5146-.438 2.3054-.01.7901.139 1.5741.438 2.3055.253.6264.676 1.1694 1.222 1.5677.458.3019.984.487 1.53.5392.547.0523 1.098-.0299 1.605-.2395.378-.1539.717-.3902.991-.6916.261-.3256.45-.7028.554-1.1066h1.798c-.089.6735-.343 1.3147-.738 1.8674-.419.5572-.964 1.0075-1.591 1.3141-.733.3811-1.548.5788-2.374.5764z"/><path d="m191.91 85.8829v7.0778h-1.798v-15.7695h1.798v5.7407h.162c.261-.59.685-1.0937 1.222-1.4525.703-.3894 1.502-.5731 2.305-.5302.729-.0147 1.449.1516 2.098.4841.604.3321 1.094.8382 1.406 1.4525.357.7887.53 1.6477.507 2.5129v7.4697h-1.821v-7.3544c.057-.7884-.2-1.5672-.714-2.1671-.261-.2637-.575-.4698-.92-.6048-.346-.135-.716-.1961-1.086-.1791-.555-.0073-1.103.1276-1.591.3919-.465.2485-.848.6244-1.107 1.0836-.311.5643-.47 1.2-.461 1.8444z"/><path d="m209.201 92.9607v-15.7695h1.891v13.9943h7.285v1.6829z"/><path d="m221.997 79.2432c-.167.0006-.332-.0317-.487-.095-.154-.0632-.294-.1563-.412-.2739-.127-.1026-.228-.2329-.296-.3809-.068-.1479-.101-.3095-.096-.4722-.007-.1663.025-.3319.093-.4838s.17-.2861.299-.3922c.118-.1176.258-.2108.412-.2741.155-.0633.32-.0955.487-.0948.336.0035.657.1355.899.3689.124.1093.224.2441.291.3952.068.1512.102.3152.101.4808-.002.1617-.038.3213-.105.4682-.068.147-.166.2781-.287.3849-.242.2333-.563.3653-.899.3689zm-.923 13.7175v-11.7579h1.799v11.7579z"/><path d="m230.942 97.6177c-.783.0236-1.564-.0935-2.306-.3458-.576-.183-1.109-.4811-1.567-.8761-.392-.3267-.727-.7163-.992-1.1527l1.43-1.0144.622.7377c.289.3174.643.569 1.038.7378.546.2327 1.136.3429 1.729.3228.822.0218 1.63-.2207 2.305-.6917.315-.2622.562-.5954.723-.9723.16-.3768.229-.7864.199-1.1948v-2.3055h-.161c-.138.2305-.323.4842-.553.8069-.354.4103-.799.7324-1.299.9405-.501.2081-1.043.2966-1.583.2583-.895.0204-1.776-.2198-2.536-.6916-.776-.4562-1.401-1.1294-1.798-1.9366-.458-.9802-.679-2.0542-.646-3.1354-.024-1.0855.189-2.1632.623-3.1585.39-.8409 1.004-1.5586 1.775-2.0749.786-.4954 1.699-.7517 2.628-.7378.627-.0196 1.251.1067 1.821.3689.403.2174.756.5157 1.038.8761.209.2432.394.5056.553.7838h.185v-1.8674h1.752v12.0346c.042.8754-.201 1.7408-.692 2.4668-.448.6446-1.084 1.1355-1.821 1.4063-.791.2833-1.627.4238-2.467.415zm0-6.4784c.648.0185 1.288-.1495 1.844-.4841.507-.3571.9-.8536 1.13-1.4294.281-.7351.414-1.5186.392-2.3054.027-.7872-.106-1.5715-.392-2.3055-.221-.6062-.613-1.135-1.13-1.5216-.536-.3839-1.185-.5785-1.844-.5533-.687-.0203-1.361.1907-1.914.5993-.517.3957-.909.932-1.129 1.5447-.265.6997-.398 1.4423-.392 2.1903-.01.7333.123 1.4616.392 2.144.226.6159.643 1.1431 1.191 1.5041.548.3611 1.197.5369 1.852.5017z"/><path d="m241.132 85.8829v7.0778h-1.798v-15.7695h1.798v5.7407h.161c.263-.5966.696-1.102 1.245-1.4525.701-.398 1.502-.5822 2.306-.5302.729-.0147 1.449.1516 2.098.4841.604.3321 1.094.8382 1.406 1.4525.357.7887.53 1.6477.507 2.5129v7.4697h-1.821v-7.3544c.057-.7884-.2-1.5672-.715-2.1671-.261-.2637-.574-.4698-.919-.6048-.346-.135-.716-.1961-1.086-.1791-.555-.0073-1.103.1276-1.591.3919-.465.2485-.849.6244-1.107 1.0836-.319.5621-.486 1.1979-.484 1.8444z"/><path d="m257.178 81.2027v1.5217h-6.086v-1.5217zm-4.311-2.8356h1.798v11.2276c-.029.3906.051.7816.231 1.1297.125.2324.33.4123.576.5072.243.0944.501.1414.761.1383h.784l.369 1.6138-.508.1384c-.276.0268-.554.0268-.83 0-.517.0066-1.029-.1037-1.498-.3228-.488-.2158-.91-.558-1.222-.9914-.327-.507-.488-1.1032-.461-1.706z"/><path d="m261.697 85.8828v7.0779h-1.798v-11.758h1.752v1.8214h.138c.28-.5861.72-1.0815 1.268-1.4294.652-.3935 1.406-.586 2.167-.5533.729-.0176 1.451.1489 2.098.4841.61.3283 1.095.8463 1.383 1.4755.371.776.545 1.631.508 2.4899v7.4698h-1.822v-7.3545c.05-.7874-.206-1.5636-.714-2.1672-.253-.2613-.559-.4661-.896-.6012-.338-.1351-.701-.1973-1.064-.1826-.54-.0078-1.073.1275-1.545.392-.457.2499-.833.626-1.083 1.0835-.272.5432-.407 1.1448-.392 1.7521z"/><path d="m273.432 79.2432c-.336-.0036-.658-.1356-.899-.3689-.122-.1068-.22-.2379-.287-.3849-.068-.1469-.103-.3065-.105-.4682.013-.1632.061-.3215.141-.4647.079-.1431.188-.2676.32-.3652.241-.2338.563-.3646.899-.3646s.658.1308.899.3646c.124.1093.224.2441.292.3953.067.1512.101.3151.1.4807-.002.1618-.038.3213-.105.4683-.068.1469-.165.278-.287.3848-.132.1156-.285.2038-.451.2592-.167.0555-.343.0771-.517.0636zm-.922 13.7175v-11.758h1.821v11.758z"/><path d="m279.518 85.8828v7.0779h-1.798v-11.758h1.752v1.8214h.046c.272-.5912.714-1.0886 1.268-1.4294.652-.3935 1.406-.586 2.167-.5533.729-.0176 1.451.1489 2.098.4841.61.3283 1.095.8463 1.384 1.4755.37.776.544 1.631.507 2.4899v7.4698h-1.822v-7.3545c.05-.7874-.206-1.5636-.714-2.1672-.253-.2613-.559-.4661-.896-.6012-.338-.1351-.7-.1973-1.064-.1826-.541-.01-1.074.1254-1.545.392-.457.2499-.833.626-1.083 1.0835-.24.5512-.343 1.1524-.3 1.7521z"/><path d="m294.988 97.6177c-.783.0216-1.563-.0954-2.306-.3458-.569-.1829-1.095-.4811-1.544-.8761-.399-.3267-.741-.716-1.015-1.1527l1.453-1.0144c.191.2589.399.5053.622.7377.285.3123.63.5633 1.015.7378.546.2327 1.136.3429 1.729.3228.822.0218 1.63-.2207 2.305-.6917.318-.2597.568-.5925.728-.97.161-.3774.227-.7882.194-1.1971v-2.3055h-.138c-.175.2805-.368.55-.576.8069-.286.3447-.639.6272-1.038.83-.566.2735-1.193.4003-1.821.3689-.901.012-1.787-.2275-2.559-.6917-.767-.4597-1.384-1.1325-1.775-1.9365-.466-.9784-.695-2.0524-.669-3.1355-.028-1.0883.193-2.1686.646-3.1585.382-.8463.998-1.566 1.775-2.0749.775-.5011 1.682-.7581 2.605-.7378.628-.0222 1.252.1042 1.821.3689.407.2108.762.5102 1.038.8761.207.2496.4.5113.576.7838h.185v-1.8674h1.752v12.0346c.042.8754-.201 1.7408-.692 2.4668-.463.6402-1.104 1.1294-1.844 1.4064-.79.2871-1.626.4277-2.467.4149zm0-6.4784c.649.0225 1.29-.1458 1.844-.4841.514-.3558.914-.852 1.153-1.4294.273-.7368.398-1.5202.369-2.3054.022-.7848-.103-1.5669-.369-2.3055-.229-.6019-.62-1.1286-1.13-1.5216-.546-.381-1.201-.5751-1.867-.5533-.68-.0205-1.347.1908-1.891.5994-.53.3875-.932.9258-1.152 1.5447-.257.7011-.382 1.4436-.369 2.1902-.017.7318.108 1.46.369 2.1441.231.5942.632 1.1073 1.152 1.4754.525.4002 1.162.6259 1.822.6455z"/><path d="m13.2747 82.265h-1.8789c-.1111-.5404-.3055-1.0152-.5833-1.4243-.2728-.4091-.6061-.7526-1.00011-1.0304-.38891-.2828-.82076-.495-1.29554-.6364s-.96976-.2121-1.48494-.2121c-.93946 0-1.79052.2374-2.5532.7122-.75762.4747-1.36119 1.1743-1.81072 2.0986-.44447.9243-.66671 2.0582-.66671 3.4017s.22224 2.4774.66671 3.4017c.44953.9243 1.0531 1.6239 1.81072 2.0987.76268.4747 1.61374.7121 2.5532.7121.51518 0 1.01016-.0707 1.48494-.2121s.90663-.351 1.29554-.6288c.39401-.2829.72731-.6289 1.00011-1.038.2778-.4141.4722-.8889.5833-1.4243h1.8789c-.1414.793-.399 1.5026-.7727 2.1289-.3738.6263-.8385 1.1592-1.3941 1.5986-.5556.4344-1.17934.7652-1.8713.9925-.68692.2273-1.42181.3409-2.20469.3409-1.32332 0-2.50016-.3232-3.53053-.9697s-1.84103-1.5658-2.43198-2.7578c-.590943-1.192-.886417-2.6062-.886417-4.2427s.295474-3.0507.886417-4.2427c.59095-1.192 1.40161-2.1112 2.43198-2.7577s2.20721-.9698 3.53053-.9698c.78288 0 1.51777.1136 2.20469.3409.69196.2273 1.3157.5607 1.8713 1.0001.5556.4344 1.0203.9647 1.3941 1.591.3737.6213.6313 1.3309.7727 2.1289z"/></g><g clip-path="url(#b)" fill="#1c1c1c"><g clip-rule="evenodd" fill-rule="evenodd"><path d="m146.766 30.5686c-1.232-.0314-2.451.256-3.539.8342-.74.3808-1.421.866-2.023 1.4409v-11.173h-5.055v30.6625h5.055v-11.9061c-.062-1.3143.371-2.6041 1.214-3.6148.409-.452.915-.8069 1.479-1.0387s1.173-.3346 1.782-.301c.592-.04 1.186.0579 1.734.286s1.036.5801 1.426 1.0285c.752.9166 1.148 2.0752 1.112 3.2609v12.2852h5.055v-12.8666c.069-1.193-.1-2.3878-.494-3.5156-.395-1.1279-1.009-2.1667-1.806-3.0568-.784-.7653-1.714-1.3655-2.734-1.7649-1.021-.3995-2.111-.5902-3.206-.5607z"/><path d="m126.391 32.6416c-.67-.5562-1.409-1.0235-2.199-1.3903-1.074-.4748-2.239-.7078-3.412-.6826-1.419-.0057-2.823.2872-4.121.8595-1.244.5524-2.369 1.3424-3.311 2.3256-.928.9947-1.649 2.1631-2.124 3.4379-.576 1.3339-.886 2.7683-.91 4.2214.043 1.4265.352 2.8324.91 4.1457.46 1.2594 1.145 2.4244 2.023 3.4378.941 1.0023 2.076 1.8022 3.336 2.3509 1.324.5748 2.753.8675 4.197.8595 2.037.0349 4.023-.6448 5.611-1.9212v1.2386c.072.6641-.003 1.3358-.218 1.9679-.216.6321-.567 1.2093-1.03 1.6912-.462.4818-1.025.8565-1.648 1.0978-.622.2412-1.291.3432-1.957.2988-1.11.0444-2.214-.1903-3.21-.6825-.836-.4843-1.499-1.218-1.896-2.0981v-.177h-5.435c.125 1.5339.706 2.9954 1.668 4.1962 1.129 1.1808 2.512 2.0885 4.045 2.6543 1.513.5621 3.113.8531 4.727.8594 1.34.0919 2.686-.0842 3.958-.5183 1.271-.434 2.444-1.1172 3.448-2.0095.893-.9039 1.586-1.9853 2.035-3.174.449-1.1888.642-2.4585.569-3.727v-20.9557h-5.056zm-1.263 12.9424c-.511.5585-1.13 1.0059-1.821 1.3145-.691.306-1.443.4528-2.199.4297-.747.0193-1.49-.1274-2.174-.4297-.694-.302-1.315-.7504-1.82-1.3145-1.037-1.14-1.606-2.6296-1.592-4.1709-.027-.7702.099-1.5381.373-2.2587.273-.7206.688-1.3793 1.219-1.9375.506-.5507 1.128-.9823 1.82-1.2639.69-.2823 1.43-.42 2.174-.4044.747-.0091 1.487.1373 2.174.4297.684.2869 1.303.7081 1.82 1.2386.533.5546.954 1.2069 1.239 1.9212.295.721.433 1.4966.404 2.275.007 1.5447-.571 3.0348-1.617 4.1709z"/><path d="m166.584 23.8447-4.803 1.7442v5.3337h-4.449v4.6007h4.12v9.7069c-.063.9946.094 1.991.461 2.9175.367.9266.935 1.7604 1.663 2.4414 1.406 1.2034 3.205 1.8508 5.055 1.8201h1.441 1.087.278v-4.6259h-2.073c-.377.0263-.755-.0254-1.112-.1517-.344-.1479-.66-.3531-.935-.6067-.281-.3095-.495-.6733-.63-1.069-.135-.3956-.187-.8147-.154-1.2313v-9.2013h5.612v-4.6007h-5.561z"/></g><path d="m106.447 30.9478h-5.132v21.3854h5.132z"/><path d="m181.7 36.1299h-5.131v16.4056h5.131z"/><path d="m106.422 21.696h-5.132v5.2074h5.132z"/><path clip-rule="evenodd" d="m83.6711 21.696h-5.3084v30.6626h18.8576v-5.0809h-13.5492z" fill-rule="evenodd"/><path clip-rule="evenodd" d="m221.488 30.8972h-5.055v5.2326h3.968c.63.001 1.254.1265 1.835.3695.582.2429 1.109.5985 1.553 1.0461.882.9285 1.379 2.1572 1.39 3.4379v11.5268h5.056v-12.6391c.013-2.348-.895-4.6077-2.528-6.2943-.804-.8409-1.769-1.5115-2.837-1.9719-1.068-.4603-2.218-.7009-3.382-.7076z" fill-rule="evenodd"/><path d="m216.357 36.1299h-5.132v16.4056h5.132z"/><path clip-rule="evenodd" d="m186.832 30.8972h-5.056v5.2326h3.969c.626-.0013 1.247.1233 1.825.3665.577.2432 1.1.5999 1.537 1.0491.447.4531.8.9901 1.038 1.5801.239.59.358 1.2214.352 1.8578v11.5268h5.056v-12.6391c.013-2.348-.894-4.6077-2.528-6.2943-.801-.8379-1.762-1.5067-2.825-1.967-1.064-.4602-2.209-.7025-3.368-.7125z" fill-rule="evenodd"/><path clip-rule="evenodd" d="m249.851 32.6162c-.65-.5255-1.364-.9672-2.124-1.3145-1.066-.4737-2.221-.715-3.387-.7078-1.418.0045-2.819.2969-4.12.8595-1.253.5523-2.386 1.3421-3.337 2.3256-.955.9927-1.71 2.1599-2.225 3.4378-.555 1.3299-.847 2.755-.859 4.1962-.02 1.445.247 2.8797.783 4.2215.495 1.2478 1.224 2.3891 2.149 3.362.934 1.0879 2.1 1.9519 3.413 2.5278 1.329.5864 2.769.8796 4.221.8595 1.167-.057 2.311-.3494 3.362-.8595.797-.3329 1.538-.7846 2.199-1.3397v1.3397c.077.665.005 1.3386-.209 1.9727-.214.6342-.565 1.2133-1.029 1.6962-.463.4828-1.028.8574-1.653 1.0971-.624.2398-1.295.3387-1.962.2897-1.111.0476-2.215-.1872-3.21-.6825-.836-.4844-1.499-1.218-1.896-2.0981v-.177h-5.511c.187 1.5187.762 2.9637 1.668 4.1962 1.125 1.1684 2.499 2.0672 4.02 2.629 1.518.5741 3.129.8654 4.752.8594 1.336.0885 2.677-.0893 3.944-.5233 1.267-.4339 2.436-1.1153 3.437-2.0045.867-.9034 1.539-1.9755 1.974-3.1497.435-1.1741.624-2.4252.554-3.6754v-21.0569h-5.056zm-1.264 12.9425c-.497.5736-1.12 1.0237-1.82 1.3144-.688.3184-1.443.4658-2.2.4298-.747.0192-1.49-.1275-2.174-.4298-.694-.302-1.315-.7504-1.82-1.3144-1.021-1.1401-1.587-2.6153-1.592-4.1457-.047-1.5546.526-3.064 1.592-4.1962.524-.5299 1.141-.9584 1.82-1.2639.693-.2703 1.431-.4075 2.174-.4044.746.0031 1.484.149 2.174.4297.684.2868 1.303.7081 1.82 1.2386.541.5536.97 1.2058 1.264 1.9212.295.7218.441 1.4955.43 2.275-.013 1.5428-.609 3.0236-1.668 4.1457z" fill-rule="evenodd"/><path d="m205.791 21.6707h-5.132v5.2326h5.132z"/><path d="m205.791 30.9226h-5.132v21.4107h5.132z"/><path clip-rule="evenodd" d="m272.197 20.6343-4.879 15.1669h4.601l.682-2.5278h6.648l.708 2.5278h4.727l-4.904-15.1669zm1.567 8.5946 1.213-4.3984h1.896l1.213 4.3984z" fill-rule="evenodd"/><path clip-rule="evenodd" d="m300.003 24.8305v-4.1962h-13.196v4.1962h4.475v6.8504h-4.475v4.2215h13.196v-4.2215h-4.475v-6.8504z" fill-rule="evenodd"/></g></svg>
